<svg width="32" height="32" viewBox="0 0 32 32" fill="none" xmlns="http://www.w3.org/2000/svg">
<g clip-path="url(#clip0_142_89)">
<path d="M18.0667 2.92533V2.82533C18.0667 2.35866 18.2173 1.94133 18.5173 1.57466C18.8173 1.208 19.2 1.02533 19.6667 1.02533C20.1333 1.02533 20.5507 1.17466 20.9173 1.47466C21.284 1.77466 21.484 2.17466 21.5173 2.67466C21.5507 3.17466 21.4 3.592 21.0667 3.92533C20.7333 4.25866 20.3333 4.42533 19.8667 4.42533L19.5667 4.52533L19.6667 4.67466L19.5667 5.22533L19.3667 6.82533C19.4333 6.892 19.4667 6.95866 19.4667 7.02533L19.2667 8.02533C19.2 8.15866 19.1333 8.25866 19.0667 8.32533L18.9667 8.72533C18.7921 9.43235 18.592 10.1328 18.3667 10.8253V11.0253C18.3 11.3587 18.2507 11.6253 18.2173 11.8253C18.184 12.0253 18.0667 12.3587 17.8667 12.8253C17.7333 13.092 17.7333 13.5253 17.8667 14.1253L17.9667 14.2253C17.9667 14.4253 18.0507 14.6587 18.2173 14.9253C18.384 15.192 18.4667 15.4253 18.4667 15.6253C18.5333 16.9587 18.4333 18.092 18.1667 19.0253L18.3667 19.6253C19.1667 20.0253 19.4 20.4587 19.0667 20.9253L19.5667 21.1253C20.3667 21.5253 20.9333 21.8747 21.2667 22.1747C21.6 22.4747 21.9333 22.792 22.2667 23.1253C22.5333 23.192 22.7333 23.292 22.8667 23.4253L23.1667 23.5253C24.5667 24.4587 25.9667 25.592 27.3667 26.9253L27.7667 27.2253V27.3253L27.6667 27.5253L27.9667 27.7253H28.0667C28.2667 27.8587 28.4 27.9253 28.4667 27.9253H28.5667C28.6333 27.9253 28.7 27.892 28.7667 27.8253L28.9667 27.7253C29.1 27.592 29.2333 27.492 29.3667 27.4253H29.7667C29.8333 27.4253 29.8333 27.4587 29.7667 27.5253L29.3667 27.7253L28.8667 28.3253H29.5667L30.2667 28.4253C30.4667 28.3587 30.6333 28.292 30.7667 28.2253L31.2667 27.9253C31.4667 27.8587 31.6667 27.9253 31.8667 28.1253H31.9667C32.0333 28.192 32 28.292 31.8667 28.4253L30.6667 29.5253C30.3333 29.792 30.0333 29.9587 29.7667 30.0253L28.4667 30.9253C28.4 30.992 28.3333 30.992 28.2667 30.9253L27.9667 30.5253L27.7667 30.1253L27.516 29.7747L27.216 29.3747L26.9667 29.0747L26.7667 28.8253L26.3667 28.5253C26.2333 28.5253 26.1 28.492 25.9667 28.4253L24.6667 27.4253C24.4667 27.4253 24.2333 27.3253 23.9667 27.1253C22.9667 26.2587 22.3 25.7253 21.9667 25.5253L21.3667 25.1253L20.1667 24.9253C19.7667 24.8587 19.2333 24.6587 18.5667 24.3253L17.7667 23.9253C17.2333 23.6587 16.8667 23.5253 16.6667 23.5253L16.2667 23.3253C16 23.2587 15.8 23.192 15.6667 23.1253L15.4667 22.9253C15.3333 22.9253 15.2 22.9587 15.0667 23.0253L13.0667 24.0253L10.5667 25.1253C9.9 25.6587 9.26667 26.092 8.66667 26.4253L7.56667 26.9253L5.86667 28.1253C5.73333 28.2587 5.6 28.2587 5.46667 28.1253L5.26667 28.3253C5.06667 28.392 4.93333 28.4253 4.86667 28.4253L4.46667 28.6253V28.8253H4.26667L4.06667 29.1253C3.93333 29.392 3.8 29.5413 3.66667 29.5747C3.53333 29.608 3.45067 29.6587 3.41733 29.7253C3.39198 29.78 3.35824 29.8304 3.31733 29.8747L3.11733 30.0747L2.81733 30.2747L2.36667 30.2253L1.76667 30.3253L1.36667 30.4253C1.03333 30.492 0.766667 30.4413 0.566667 30.2747C0.366667 30.108 0.2 29.8587 0.0666667 29.5253C-0.0666667 29.3253 0 29.1587 0.266667 29.0253L0.366667 28.9253C0.433333 28.8587 0.533333 28.8253 0.666667 28.8253H1.26667L2.06667 28.5253L2.46667 28.4253C2.46667 28.292 2.5 28.192 2.56667 28.1253C2.63333 28.0587 2.73333 28.0253 2.86667 28.0253V27.9253C2.80241 27.8017 2.76816 27.6647 2.76667 27.5253C2.7 27.392 2.68267 27.292 2.71733 27.2253C2.75067 27.1587 2.784 27.1253 2.81733 27.1253H2.86667L2.96667 27.4253C3.03333 27.7587 3.13333 27.8587 3.26667 27.7253L3.36667 27.5253C3.43333 27.392 3.53333 27.3253 3.66667 27.3253L3.86667 27.5253L4.06667 27.3253L3.96667 27.2253C3.96667 27.1587 4 27.1253 4.06667 27.1253L4.46667 26.7253C4.8 26.3253 5.2 25.9587 5.66667 25.6253C6.6 24.892 7.6 24.3253 8.66667 23.9253C9 23.592 9.36667 23.4253 9.76667 23.4253C10.0333 22.9587 10.4333 22.4587 10.9667 21.9253C11.4333 21.592 11.7667 21.3587 11.9667 21.2253C12.1 20.9587 12.2667 20.8253 12.4667 20.8253H12.5667L12.7667 20.6253C12.9 20.5587 13 20.492 13.0667 20.4253V19.9253C13.0667 19.592 13.1 19.3253 13.1667 19.1253C13.2333 18.9253 13.4 18.8253 13.6667 18.8253L14.0667 18.4253C13.9333 18.1587 13.8667 17.8587 13.8667 17.5253H13.7667C13.6333 17.3253 13.5667 17.1253 13.5667 16.9253C13.3667 16.592 13.2333 16.3253 13.1667 16.1253H12.8667C12.8 16.3253 12.6333 16.4587 12.3667 16.5253L12.2667 16.7253C12 17.192 11.7667 17.5413 11.5667 17.7747C11.3667 18.008 11 18.292 10.4667 18.6253C10.1333 18.9587 9.9 19.3253 9.76667 19.7253C9.7 19.9253 9.7 20.1253 9.76667 20.3253L9.66667 20.5253H9.76667C9.76667 20.6587 9.8 20.7253 9.86667 20.7253H9.96667C10.1 20.792 10.1667 20.8747 10.1667 20.9747C10.1667 21.0747 10.0667 21.108 9.86667 21.0747C9.69975 21.0563 9.54269 20.9864 9.41733 20.8747C9.31733 20.7747 9.23333 20.7253 9.16667 20.7253L8.86667 21.0253C8.73333 21.2253 8.6 21.308 8.46667 21.2747C8.33333 21.2413 8.3 21.192 8.36667 21.1253L8.46667 21.0253C8.53333 20.892 8.53333 20.8253 8.46667 20.8253L7.66667 21.0253C7.6 21.092 7.51733 21.092 7.41733 21.0253C7.31733 20.9587 7.33333 20.892 7.46667 20.8253L7.96667 20.6253C7.96667 20.5587 7.93333 20.5253 7.86667 20.5253C7.6 20.6587 7.33333 20.692 7.06667 20.6253L6.56667 20.5253L6.46667 20.4253C6.46667 20.3587 6.5 20.3253 6.56667 20.3253C6.83333 20.392 7.16667 20.3587 7.56667 20.2253L8.26667 19.9253L9.06667 19.0253L9.16667 18.8253C9.43333 18.292 9.71733 17.808 10.0173 17.3747C10.2814 16.9809 10.6012 16.6274 10.9667 16.3253L11.0667 15.9253C11.2 15.6587 11.3333 15.4253 11.4667 15.2253C11.6 15.0253 11.7667 14.7587 11.9667 14.4253L12.2667 14.0253C12.5333 13.6253 12.8333 13.4253 13.1667 13.4253L13.4667 13.1253C13.5333 13.0587 13.5667 12.9587 13.5667 12.8253L13.7667 12.6253L13.6667 12.5253C13.2667 12.192 13.0667 11.892 13.0667 11.6253C13 11.1587 13.1507 10.7587 13.5173 10.4253C13.884 10.092 14.2507 9.94133 14.6173 9.97466C14.984 10.008 15.2667 10.1253 15.4667 10.3253L15.6667 10.5253C15.7333 10.5253 15.7667 10.5587 15.7667 10.6253L16.1667 10.8253V11.1253C16.3 11.2587 16.3667 11.3587 16.3667 11.4253C16.5 11.2253 16.7 10.992 16.9667 10.7253L17.4667 9.12533C17.4667 8.85866 17.5333 8.592 17.6667 8.32533L17.8667 8.02533V7.82533L18.1667 6.62533H18.3667L18.6667 5.42533C18.7337 5.19681 18.7337 4.95385 18.6667 4.72533L18.2667 3.72533L18.0667 2.92533Z" fill="#FBFBFB"/>
</g>
<defs>
<clipPath id="clip0_142_89">
<rect width="32" height="32" fill="white"/>
</clipPath>
</defs>
</svg>
