<svg width="32" height="32" viewBox="0 0 32 32" fill="none" xmlns="http://www.w3.org/2000/svg">
<g clip-path="url(#clip0_142_100)">
<path d="M14.9013 0C14.9013 0 13.9933 2.584 13.7453 3.36933C13.1253 2.936 11.1813 1.592 10.3733 1.03333C10.56 2.108 10.848 3.86533 10.9107 4.23733C10.7453 4.11333 9.816 3.30667 8.41066 2.64533C9.196 3.55467 9.75466 4.96 10.1053 6.096C12.234 4.88668 14.6411 4.25297 17.0893 4.25733C18.392 4.25733 19.676 4.444 20.8947 4.79467C21.0187 3.616 21.2667 2.17067 21.804 1.11733C20.584 2.088 19.8387 3.12133 19.736 3.24533C19.6947 2.99733 19.612 1.21867 19.5093 0C19.0133 0.537333 17.1093 2.688 16.7587 3.01867C16.512 2.584 14.9013 0 14.9013 0ZM17.1333 5.14667C14.9013 5.14667 12.7333 5.66133 10.872 6.63333C11.8227 6.69467 12.504 7.524 12.732 8.18533C11.988 7.58533 10.8093 7.296 10.0853 8.08133C9.404 8.86667 9.46666 10.332 10.148 11.5107C8.55733 10.704 8.556 8.59733 9.11466 7.688C7.2864 9.01341 5.80978 10.7656 4.81333 12.792L6.24 13.0213C4.58666 14.9227 3.43066 18.292 3.43066 19.8827L5.764 19.1587C5.35066 20.564 5.22933 25.2947 6.63466 27.672C6.63466 27.672 8.47466 26.392 10.5613 23.188C11.428 26.0813 11.036 28.5013 10.5613 30.8773C14.3213 32.9853 18.6813 31.8053 21.244 29.9667L21.72 31.7667C24.7173 29.7813 26.3707 26.9293 26.68 23.6013L27.796 24.8413C29.5107 19.736 28.1693 15.664 25.7093 12.172L25.6053 13.0213L24.552 11.8613C24.552 11.8613 24.7787 11.7587 24.9653 11.5107C25.0053 11.4067 24.904 10.8507 24.4707 10.4787C24.0573 10.5827 23.724 10.8307 23.5587 11.0787C23.1889 10.7695 22.7697 10.5247 22.3187 10.3547C22.4013 10.4573 23.124 11.408 23.1853 11.6973C23.8067 12.2147 24.6547 12.8133 25.212 13.5573C24.7587 13.02 22.5667 12.8947 21.5747 13.4533C21.5747 13.4533 20.5827 12.296 19.6733 11.4893C19.4867 10.808 20.108 10.2093 20.108 10.2093C20.108 10.2093 19.468 10.1693 18.868 10.7693C17.9587 10.0867 16.8013 9.776 16.8013 9.776C15.52 9.96267 14.652 10.8693 14.652 10.8693C14.9413 11.056 15.3347 11.3053 15.6867 11.4293C16.368 11.7187 17.028 11.6147 17.4627 11.6147C17.8133 11.6147 18.3107 11.7187 18.3107 11.7187C18.3107 11.7187 19.1573 12.3787 20.3973 13.8053C18.496 13.04 16.5107 13.888 15.1053 13.2053C13.452 12.3787 13.5773 11.0787 13.5773 11.0787C13.5773 11.0787 12.4627 10.932 12.4627 10.8907C12.4627 10.8907 13.2867 9.79733 14.5267 9.424L13.908 8.888C14.652 8.268 15.9533 7.44133 18.0613 7.23467C18.0613 7.23467 18.972 7.584 20.8747 8.948C21.184 8.51333 21.2853 7.604 21.2853 7.604C22.256 7.93467 24.2413 9.38133 25.0267 10.2493C24.5933 9.23733 24.2813 8.61867 24.1787 7.56533C23.7027 7.08933 22.5253 6.09733 20.0867 5.49733C20.48 6.304 20.4387 6.984 20.4387 6.984C19.9853 6.384 19.032 5.456 18.372 5.208C17.9787 5.188 17.5653 5.14533 17.132 5.14533L17.1333 5.14667ZM21.4947 14.5707C21.9972 14.9717 22.5632 15.2858 23.1693 15.5V17.2973C22.5493 17.8347 20.5227 19.5307 19.1587 19.3853C18.3947 17.9187 17.672 16.576 17.672 16.576C17.672 16.576 19.7587 14.8187 21.4947 14.5707ZM25.4613 14.612C26.0813 16.12 26.248 17.9187 25.5653 19.1173C25.192 18.3107 24.7173 17.8547 24.2213 17.3173V15.5213C24.2213 15.5213 24.7787 15.1693 25.4613 14.612ZM24.1587 19.1387C24.7787 19.82 24.904 20.5627 24.904 20.5627C24.6347 22.0707 23.7893 23.024 23.1693 23.416C23.2307 22.3213 22.94 21.3907 22.94 21.3907C22.4867 21.8867 21.4333 22.3813 20.812 22.5053L19.8827 20.772C20.9787 20.7293 22.8173 19.18 22.8173 19.18L24.1587 19.1387Z" fill="#F6F6F6"/>
</g>
<defs>
<clipPath id="clip0_142_100">
<rect width="32" height="32" fill="white"/>
</clipPath>
</defs>
</svg>
